<svg id="Layer_1" data-name="Layer 1" xmlns="http://www.w3.org/2000/svg" viewBox="0 0 394 80"><defs><style>.cls-1{fill:#454444;}.cls-2{fill:#489ed7;}.cls-3{fill:#3287c8;stroke:#676767;stroke-miterlimit:10;stroke-width:0.01px;}.cls-4{fill:#fff;}</style></defs><path d="M7.88,60.52a12,12,0,0,1-5.21-4A10.82,10.82,0,0,1,.61,50.26h9.73a4.7,4.7,0,0,0,1.44,3.18A4.64,4.64,0,0,0,15,54.53a5,5,0,0,0,3.2-.93A3.11,3.11,0,0,0,19.37,51a3.05,3.05,0,0,0-.94-2.3,7.64,7.64,0,0,0-2.29-1.5,37.78,37.78,0,0,0-3.88-1.33,42.12,42.12,0,0,1-5.93-2.25,11.06,11.06,0,0,1-4-3.31A9.27,9.27,0,0,1,.72,34.6a9.85,9.85,0,0,1,3.79-8.21,15.65,15.65,0,0,1,9.89-3q6.2,0,10,3a10.64,10.64,0,0,1,4.07,8.26H18.57a3.88,3.88,0,0,0-1.34-2.86,4.73,4.73,0,0,0-3.15-1,3.89,3.89,0,0,0-2.67.88,3.19,3.19,0,0,0-1,2.54A3.14,3.14,0,0,0,12.1,37a28,28,0,0,0,5.35,2.2,49,49,0,0,1,5.9,2.35,11.21,11.21,0,0,1,3.93,3.26,8.74,8.74,0,0,1,1.66,5.5,10.88,10.88,0,0,1-1.63,5.83,11.57,11.57,0,0,1-4.73,4.17,16.27,16.27,0,0,1-7.33,1.55A19.29,19.29,0,0,1,7.88,60.52Z"/><path d="M61.11,34.73c2.07,2.27,3.1,5.37,3.1,9.33V61.48H55.13V45.29a6.55,6.55,0,0,0-1.55-4.65A5.44,5.44,0,0,0,49.41,39a5.41,5.41,0,0,0-4.17,1.66,6.5,6.5,0,0,0-1.55,4.65V61.48H34.55V21.93h9.14V35.67a9.78,9.78,0,0,1,3.79-3.16,12.19,12.19,0,0,1,5.4-1.17A10.62,10.62,0,0,1,61.11,34.73Z"/><path d="M70.49,38.45a13,13,0,0,1,4.73-5.35,12.41,12.41,0,0,1,6.68-1.87,11.52,11.52,0,0,1,5.53,1.28,9.52,9.52,0,0,1,3.67,3.37V31.66h9.13V61.48H91.1V57.26a10,10,0,0,1-3.72,3.37,11.55,11.55,0,0,1-5.53,1.28A12.11,12.11,0,0,1,75.22,60a13.13,13.13,0,0,1-4.73-5.39,18,18,0,0,1-1.74-8.1A17.76,17.76,0,0,1,70.49,38.45ZM89.2,41.17a6.44,6.44,0,0,0-9.25,0,7.4,7.4,0,0,0-1.9,5.37A7.57,7.57,0,0,0,80,51.94a6.36,6.36,0,0,0,9.25,0,7.5,7.5,0,0,0,1.9-5.4A7.5,7.5,0,0,0,89.2,41.17Z"/><path d="M120,32.76a10.26,10.26,0,0,1,5.34-1.42V41h-2.51a7.7,7.7,0,0,0-5.13,1.47Q116,44,116,47.64V61.48h-9.14V31.66H116v5A12,12,0,0,1,120,32.76Z"/><path d="M157.69,48.76H137A6.15,6.15,0,0,0,138.8,53a5.46,5.46,0,0,0,3.87,1.47,4.81,4.81,0,0,0,4.76-2.88h9.73a13.38,13.38,0,0,1-2.7,5.29,13.65,13.65,0,0,1-4.89,3.68A15.61,15.61,0,0,1,143,61.91a16,16,0,0,1-7.8-1.87,13.41,13.41,0,0,1-5.35-5.34,16.56,16.56,0,0,1-1.92-8.13,16.6,16.6,0,0,1,1.9-8.12,13.09,13.09,0,0,1,5.31-5.35A16.19,16.19,0,0,1,143,31.23a16,16,0,0,1,7.7,1.82A13,13,0,0,1,156,38.23a15.72,15.72,0,0,1,1.9,7.86A22.47,22.47,0,0,1,157.69,48.76Zm-9.19-5.07a4.72,4.72,0,0,0-1.61-3.75,5.93,5.93,0,0,0-4-1.39A5.78,5.78,0,0,0,139,39.89a6,6,0,0,0-1.95,3.8Z"/><path d="M189.65,24v7.33h-9.94V61.48h-9.14V31.29h-9.94V24Z"/><path d="M220.81,34.73c2.07,2.27,3.1,5.37,3.1,9.33V61.48h-9.09V45.29a6.5,6.5,0,0,0-1.55-4.65,6.06,6.06,0,0,0-8.33,0,6.5,6.5,0,0,0-1.55,4.65V61.48h-9.14V21.93h9.14V35.67a9.78,9.78,0,0,1,3.79-3.16,12.16,12.16,0,0,1,5.4-1.17A10.62,10.62,0,0,1,220.81,34.73Z"/><path d="M258.22,48.76H237.54A6.2,6.2,0,0,0,239.33,53a5.47,5.47,0,0,0,3.88,1.47A4.8,4.8,0,0,0,248,51.6h9.73a13.38,13.38,0,0,1-2.7,5.29,13.56,13.56,0,0,1-4.89,3.68,15.56,15.56,0,0,1-6.57,1.34A16,16,0,0,1,235.72,60a13.32,13.32,0,0,1-5.34-5.34,16.46,16.46,0,0,1-1.93-8.13,16.71,16.71,0,0,1,1.9-8.12,13.18,13.18,0,0,1,5.32-5.35,16.19,16.19,0,0,1,7.86-1.87,15.94,15.94,0,0,1,7.69,1.82,13.07,13.07,0,0,1,5.27,5.18,15.82,15.82,0,0,1,1.89,7.86A22.47,22.47,0,0,1,258.22,48.76ZM249,43.69a4.71,4.71,0,0,0-1.6-3.75,6,6,0,0,0-4-1.39,5.81,5.81,0,0,0-3.88,1.34,6,6,0,0,0-1.95,3.8Z"/><path d="M272.33,54.43h12v7H263.19V24h9.14Z"/><path d="M289.36,27.14a4.57,4.57,0,0,1-1.53-3.5,4.63,4.63,0,0,1,1.53-3.55,6.07,6.07,0,0,1,7.8,0,4.62,4.62,0,0,1,1.52,3.55,4.56,4.56,0,0,1-1.52,3.5,6.07,6.07,0,0,1-7.8,0Zm8.47,9.28V61.48h-9.14V36.42Z"/><path d="M321.32,32.51A9.56,9.56,0,0,1,325,35.88V31.66h9.14V61.43a16.77,16.77,0,0,1-1.63,7.46,12.51,12.51,0,0,1-5,5.31,16.08,16.08,0,0,1-8.31,2q-6.63,0-10.75-3.13a11.78,11.78,0,0,1-4.7-8.47h9a4.38,4.38,0,0,0,2,2.7,7.41,7.41,0,0,0,4,1,6.22,6.22,0,0,0,4.52-1.63c1.12-1.09,1.68-2.82,1.68-5.21V57.21a10.08,10.08,0,0,1-3.69,3.39,11.16,11.16,0,0,1-5.5,1.31,12.16,12.16,0,0,1-6.68-1.9,13,13,0,0,1-4.73-5.39,18,18,0,0,1-1.74-8.1,17.76,17.76,0,0,1,1.74-8.07,12.88,12.88,0,0,1,4.73-5.35,12.39,12.39,0,0,1,6.68-1.87A11.55,11.55,0,0,1,321.32,32.51Zm1.76,8.66a6.43,6.43,0,0,0-9.24,0,7.35,7.35,0,0,0-1.9,5.37,7.53,7.53,0,0,0,1.9,5.42,6.35,6.35,0,0,0,9.24,0,7.46,7.46,0,0,0,1.9-5.4A7.46,7.46,0,0,0,323.08,41.17Z"/><path d="M367.31,34.73c2.07,2.27,3.1,5.37,3.1,9.33V61.48h-9.09V45.29a6.5,6.5,0,0,0-1.55-4.65,6.06,6.06,0,0,0-8.33,0,6.5,6.5,0,0,0-1.55,4.65V61.48h-9.14V21.93h9.14V35.67a9.78,9.78,0,0,1,3.79-3.16,12.16,12.16,0,0,1,5.4-1.17A10.62,10.62,0,0,1,367.31,34.73Z"/><path d="M393.39,53.73v7.75h-4.65c-3.31,0-5.9-.81-7.75-2.43s-2.78-4.27-2.78-7.94V39.25h-3.63V31.66h3.63V24.39h9.14v7.27h6v7.59h-6v12a2.56,2.56,0,0,0,.64,1.93,3.15,3.15,0,0,0,2.14.58Z"/><circle class="cls-1" cx="84.36" cy="46.57" r="5.01"/><circle class="cls-2" cx="84.36" cy="46.57" r="4.45"/><circle class="cls-3" cx="84.36" cy="46.57" r="2.84"/><circle class="cls-4" cx="86.21" cy="44.89" r="1.19"/><circle class="cls-4" cx="82.77" cy="48.55" r="0.58"/><path d="M277.36,33.91l-.67-.19a3,3,0,0,1-2-2.76q0-7.29,0-14.58a3,3,0,0,1,2.95-2.93h1.52c0-.27,0-.5,0-.73a2.12,2.12,0,0,1,4.23,0v.73h3.1a.38.38,0,0,0,.39-.23c.61-1.05,1.24-2.09,1.85-3.13a.73.73,0,0,1,.71-.41h7.87a.77.77,0,0,1,.74.42c.6,1.05,1.22,2.07,1.83,3.12a.41.41,0,0,0,.41.23,14.8,14.8,0,0,1,2,.05,2.89,2.89,0,0,1,2.44,2.4s0,.09.05.14V31.32l-.06.19a3,3,0,0,1-2.05,2.26l-.53.14Zm12.41-19.29H277.86a1.81,1.81,0,0,0-2,2V30.76a1.83,1.83,0,0,0,2,2h23.83a1.83,1.83,0,0,0,2-2V16.59a1.81,1.81,0,0,0-2-2Zm8.9-1.19c-.5-.85-1-1.66-1.46-2.46a.35.35,0,0,0-.27-.11h-7.05a.37.37,0,0,0-.35.21c-.33.58-.68,1.16-1,1.74-.12.2-.23.4-.36.63Zm-18.31,0h1.88c0-.26,0-.51,0-.75a.94.94,0,0,0-.94-.87.92.92,0,0,0-.93.87C280.35,12.91,280.36,13.16,280.36,13.42Z"/><path d="M294,6v1.5a.59.59,0,1,1-1.18,0v-3a.61.61,0,0,1,.59-.64.6.6,0,0,1,.59.63Z"/><path d="M291.28,7.56a2.59,2.59,0,0,1-.41.49.49.49,0,0,1-.64-.07c-.25-.23-.48-.47-.71-.7l-1.39-1.39c-.3-.31-.34-.66-.09-.91a.61.61,0,0,1,.92.08l2,2A3.74,3.74,0,0,1,291.28,7.56Z"/><path d="M298.94,5.5a1.05,1.05,0,0,1-.2.34q-1,1.05-2.07,2.07a.59.59,0,1,1-.83-.83L297.92,5a.57.57,0,0,1,.69-.15A.59.59,0,0,1,298.94,5.5Z"/><path d="M293.42,16.27a7.4,7.4,0,1,1-7.41,7,7.12,7.12,0,0,1,.48-2.23c.19-.5.48-.68.84-.54s.44.47.26.95a6.23,6.23,0,1,0,5.31-4,10.29,10.29,0,0,0-1.88.45.62.62,0,0,1-.67-.16.49.49,0,0,1-.09-.62.84.84,0,0,1,.39-.33A6.91,6.91,0,0,1,293.42,16.27Z"/><path d="M293.43,18.85a4.82,4.82,0,1,1-4.84,4.8A4.82,4.82,0,0,1,293.43,18.85Zm0,1.18a3.65,3.65,0,1,0,3.62,3.66A3.63,3.63,0,0,0,293.43,20Z"/><path d="M281.3,18.27h1.47a.59.59,0,0,1,.65.56.6.6,0,0,1-.65.61h-2.94a.59.59,0,0,1-.64-.61.58.58,0,0,1,.65-.56Z"/><path d="M288.6,19.44a.61.61,0,0,1-.6-.57.58.58,0,0,1,.56-.6.57.57,0,0,1,.61.57A.6.6,0,0,1,288.6,19.44Z"/><path d="M295.72,23.55a.59.59,0,1,1-1.16.11,1.16,1.16,0,0,0-1.18-1.15.57.57,0,0,1-.55-.62.59.59,0,0,1,.65-.54A2.31,2.31,0,0,1,295.72,23.55Z"/></svg>